<?xml version="1.0" encoding="utf-8"?>
<!-- Generator: Adobe Illustrator 24.3.0, SVG Export Plug-In . SVG Version: 6.00 Build 0)  -->
<svg version="1.1" id="레이어_1" xmlns="http://www.w3.org/2000/svg" xmlns:xlink="http://www.w3.org/1999/xlink" x="0px"
	 y="0px" viewBox="0 0 200 200" style="enable-background:new 0 0 200 200;" xml:space="preserve">
<g>
	<g>
		<path d="M103.54,10.43C79.09,25.01,55.09,40.32,31.57,56.36c-5.29,3.6-0.29,12.27,5.05,8.63c23.52-16.04,47.52-31.35,71.97-45.93
			C114.11,15.77,109.09,7.12,103.54,10.43L103.54,10.43z"/>
	</g>
</g>
<g>
	<g>
		<path d="M40.88,71.92c18.66,13.63,40.36,22.74,58.07,37.7c4.89,4.13,12-2.91,7.07-7.07C87.61,87,65.3,77.43,45.92,63.28
			C40.72,59.48,35.73,68.16,40.88,71.92L40.88,71.92z"/>
	</g>
</g>
<g>
	<g>
		<path d="M107.42,26.03c15.05,12.24,31.33,22.69,48.84,31.05c5.78,2.76,10.86-5.86,5.05-8.63c-16.71-7.98-32.45-17.8-46.82-29.49
			C109.54,14.93,102.42,21.96,107.42,26.03L107.42,26.03z"/>
	</g>
</g>
<g>
	<g>
		<path d="M157.98,53.04c-18.23,18.69-38.93,34.54-61.72,47.27c-5.62,3.14-0.58,11.78,5.05,8.63
			c23.49-13.12,44.97-29.58,63.75-48.84C169.55,55.5,162.48,48.42,157.98,53.04L157.98,53.04z"/>
	</g>
</g>
<g>
	<g>
		<path d="M92.63,108.65c2.75,22.29,3.6,44.72,2.54,67.15c-0.3,6.43,9.7,6.42,10,0c1.06-22.43,0.21-44.87-2.54-67.15
			C101.85,102.35,91.85,102.27,92.63,108.65L92.63,108.65z"/>
	</g>
</g>
<g>
	<g>
		<path d="M33.61,62.1c-3.75,25.75-5.15,51.7-3.95,77.71c0.3,6.41,10.3,6.44,10,0c-1.15-25.07-0.03-50.21,3.6-75.05
			C44.17,58.46,34.54,55.74,33.61,62.1L33.61,62.1z"/>
	</g>
</g>
<g>
	<g>
		<path d="M32.11,149.79c19.1,13.88,39.04,26.54,59.74,37.91c5.64,3.1,10.7-5.53,5.05-8.63c-20.7-11.37-40.64-24.02-59.74-37.91
			C31.94,137.37,26.95,146.04,32.11,149.79L32.11,149.79z"/>
	</g>
</g>
<g>
	<g>
		<path d="M100.19,187.09c3.57-6.76,9.57-11.08,15.91-15.07c7.27-4.58,14.79-8.76,22.49-12.56c12.85-6.34,26.03-11.65,34.83-23.54
			c3.83-5.18-4.84-10.17-8.63-5.05c-8.88,12-25.36,16.7-38.04,23.43c-12.74,6.77-28.17,14.42-35.19,27.73
			C88.56,187.73,97.19,192.79,100.19,187.09L100.19,187.09z"/>
	</g>
</g>
<g>
	<g>
		<path d="M155.8,59.24c6.78,26.65,9.3,54.02,7.61,81.46c-0.39,6.43,9.61,6.4,10,0c1.74-28.28-0.99-56.66-7.97-84.12
			C163.86,50.35,154.21,52.99,155.8,59.24L155.8,59.24z"/>
	</g>
</g>
<g>
	<g>
		<path d="M81.54,118.59c-2.06,0.18-4.37,0.42-6.13-0.68c-1.48-0.93-1.9-3.05-1.91-4.76c-0.01-0.94,0.49-1.33,1.22-1.8
			c0.76-0.5,1.66-0.9,2.51-0.94c0.83-0.05,1.51,0.09,2.18,0.59c0.14,0.1,0.46,0.46,0.61,0.72c0.24,0.43,0.36,0.9,0.48,1.4
			c0.46,2.05,0.73,4.47-0.3,6.33c-0.94,1.69,1.65,3.21,2.59,1.51c1.4-2.52,1.22-5.44,0.69-8.17c-0.26-1.36-0.74-2.73-1.75-3.73
			c-1-0.99-2.36-1.52-3.74-1.64c-1.4-0.13-2.81,0.28-4.05,0.91c-1.17,0.6-2.43,1.49-3.01,2.71c-0.68,1.42-0.43,3.1-0.15,4.6
			c0.25,1.33,0.78,2.62,1.67,3.65c2.25,2.62,5.95,2.59,9.09,2.31c0.81-0.07,1.5-0.64,1.5-1.5
			C83.04,119.33,82.35,118.51,81.54,118.59L81.54,118.59z"/>
	</g>
</g>
<g>
	<g>
		<path d="M121.14,118.2c-1.01,0.31-2.05,0.67-3.1,0.73c-0.87,0.05-1.56-0.02-2.23-0.4c-0.64-0.36-0.99-0.94-1.21-1.62
			c-0.13-0.42-0.23-0.85-0.3-1.28c-0.05-0.27-0.1-0.68-0.12-1.13c-0.01-0.21-0.02-0.43-0.01-0.64c0-0.1,0.01-0.21,0.02-0.32
			c-0.03,0.23,0.01-0.03,0.02-0.06c0.03-0.1,0.05-0.2,0.08-0.29c-0.07,0.2,0.02-0.02,0.03-0.06c0.04-0.09,0.18-0.23,0.22-0.26
			c0.37-0.26,0.6-0.31,1.06-0.47c0.49-0.18,0.97-0.35,1.47-0.49c0.37-0.11,0.95-0.24,1.19-0.26c0.23-0.03,0.47-0.03,0.7-0.03
			c0.12,0,0.23,0.01,0.35,0.02c0.11,0.01,0.11,0.01,0.03,0c0.06,0.01,0.11,0.02,0.17,0.03c0.43,0.11,0.64,0.17,1.02,0.44
			c-0.16-0.12,0.04,0.03,0.06,0.05c0.09,0.09,0.19,0.17,0.27,0.27c0.02,0.02,0.22,0.26,0.13,0.14c-0.08-0.1,0.13,0.2,0.15,0.23
			c0.31,0.49,0.37,0.65,0.5,1.15c0.06,0.23,0.12,0.46,0.15,0.69c-0.03-0.25,0,0.09,0,0.11c0.01,0.2,0.02,0.4,0.02,0.6
			c0,1.22-0.29,2.39-0.59,3.57c-0.2,0.79,0.25,1.63,1.05,1.85c0.77,0.21,1.65-0.26,1.85-1.05c0.67-2.68,1.16-5.54-0.19-8.1
			c-0.57-1.07-1.49-1.99-2.6-2.49c-1.36-0.6-2.81-0.6-4.25-0.31c-1.24,0.25-2.53,0.7-3.67,1.26c-1.33,0.64-2.03,1.89-2.2,3.31
			c-0.14,1.19,0.05,2.46,0.3,3.61c0.27,1.19,0.78,2.36,1.64,3.25c2.36,2.42,5.91,1.74,8.78,0.85c0.77-0.24,1.27-1.05,1.05-1.85
			C122.78,118.48,121.92,117.96,121.14,118.2L121.14,118.2z"/>
	</g>
</g>
<g>
	<g>
		<path d="M79.46,149.49c-1.08-1.37-0.72-3.52-0.09-5c0.68-1.59,1.89-2.98,3.29-3.98c3.56-2.54,8.07-2.75,12.27-2.23
			c0.81,0.1,1.5-0.76,1.5-1.5c0-0.89-0.69-1.4-1.5-1.5c-5.22-0.65-10.76,0.02-14.9,3.51c-3.59,3.01-5.93,8.74-2.69,12.82
			c0.5,0.64,1.6,0.53,2.12,0C80.09,150.98,79.96,150.13,79.46,149.49L79.46,149.49z"/>
	</g>
</g>
<g>
	<g>
		<path d="M104.28,140.2c1.88-0.01,3.73,0.42,5.61,0.17c1.68-0.22,3.23-0.95,4.62-1.9c0.69-0.48,1.36-1.01,2-1.56
			c0.61-0.53,1.27-1.07,1.68-1.78c0.49-0.83,0.55-1.76,0.58-2.7c0.03-0.98,0.05-1.95,0.07-2.93c0.05-1.93-2.95-1.93-3,0
			c-0.02,0.81-0.04,1.63-0.06,2.44c-0.01,0.53,0.09,1.22-0.18,1.69c-0.29,0.5-0.94,0.93-1.38,1.3c-0.51,0.43-1.03,0.83-1.59,1.19
			c-1.03,0.67-2.19,1.25-3.43,1.33c-1.64,0.11-3.27-0.26-4.92-0.25C102.35,137.22,102.35,140.22,104.28,140.2L104.28,140.2z"/>
	</g>
</g>
</svg>
