<?xml version="1.0" encoding="utf-8"?>
<!-- Generator: Adobe Illustrator 24.3.0, SVG Export Plug-In . SVG Version: 6.00 Build 0)  -->
<svg version="1.1" id="레이어_1" xmlns="http://www.w3.org/2000/svg" xmlns:xlink="http://www.w3.org/1999/xlink" x="0px"
	 y="0px" viewBox="0 0 500 300" style="enable-background:new 0 0 500 300;" xml:space="preserve">
<style type="text/css">
	.st0{fill:url(#SVGID_1_);}
	.st1{fill:url(#SVGID_2_);}
	.st2{fill:url(#SVGID_3_);}
	.st3{fill:url(#SVGID_4_);}
</style>
<rect x="16" y="20" width="468" height="233"/>
<rect x="25" y="11" width="450" height="28"/>
<circle cx="25" cy="20" r="9"/>
<circle cx="475" cy="20" r="9"/>
<linearGradient id="SVGID_1_" gradientUnits="userSpaceOnUse" x1="16" y1="34" x2="484" y2="34" gradientTransform="matrix(1 0 0 -1 0 300)">
	<stop  offset="0" style="stop-color:#757575"/>
	<stop  offset="1" style="stop-color:#EDEDEC"/>
</linearGradient>
<rect x="16" y="253" class="st0" width="468" height="26"/>
<linearGradient id="SVGID_2_" gradientUnits="userSpaceOnUse" x1="25" y1="24" x2="475" y2="24" gradientTransform="matrix(1 0 0 -1 0 300)">
	<stop  offset="0" style="stop-color:#777777"/>
	<stop  offset="1" style="stop-color:#EAEAE9"/>
</linearGradient>
<rect x="25" y="263" class="st1" width="450" height="26"/>
<linearGradient id="SVGID_3_" gradientUnits="userSpaceOnUse" x1="16" y1="21" x2="34" y2="21" gradientTransform="matrix(1 0 0 -1 0 300)">
	<stop  offset="0" style="stop-color:#757575"/>
	<stop  offset="1" style="stop-color:#797979"/>
</linearGradient>
<ellipse class="st2" cx="25" cy="279" rx="9" ry="10"/>
<linearGradient id="SVGID_4_" gradientUnits="userSpaceOnUse" x1="465" y1="21" x2="484" y2="21" gradientTransform="matrix(1 0 0 -1 0 300)">
	<stop  offset="0" style="stop-color:#E7E7E6"/>
	<stop  offset="1" style="stop-color:#EDEDEC"/>
</linearGradient>
<ellipse class="st3" cx="474.5" cy="279" rx="9.5" ry="10"/>
<g>
	<g>
		<path d="M249.8,258c-3.9,2.2-7.7,4.6-11.5,7.1c-0.8,0.6,0,1.9,0.8,1.3c3.8-2.5,7.6-4.8,11.5-7.1
			C251.5,258.8,250.7,257.5,249.8,258L249.8,258z"/>
	</g>
</g>
<g>
	<g>
		<path d="M239.8,267.5c3,2.1,6.5,3.5,9.3,5.8c0.8,0.6,1.9-0.4,1.1-1.1c-2.9-2.4-6.5-3.9-9.6-6C239.7,265.5,238.9,266.9,239.8,267.5
			L239.8,267.5z"/>
	</g>
</g>
<g>
	<g>
		<path d="M250.4,260.4c2.4,1.9,5,3.5,7.8,4.8c0.9,0.4,1.7-0.9,0.8-1.3c-2.7-1.2-5.2-2.7-7.5-4.5
			C250.7,258.7,249.6,259.8,250.4,260.4L250.4,260.4z"/>
	</g>
</g>
<g>
	<g>
		<path d="M258.5,264.6c-2.9,2.9-6.2,5.3-9.9,7.3c-0.9,0.5-0.1,1.8,0.8,1.3c3.8-2,7.2-4.6,10.2-7.5
			C260.3,264.9,259.2,263.8,258.5,264.6L258.5,264.6z"/>
	</g>
</g>
<g>
	<g>
		<path d="M248,273.1c0.4,3.4,0.6,6.9,0.4,10.3c0,1,1.6,1,1.6,0c0.2-3.5,0-6.9-0.4-10.3C249.5,272.1,247.9,272.1,248,273.1
			L248,273.1z"/>
	</g>
</g>
<g>
	<g>
		<path d="M238.6,265.9c-0.6,4-0.8,8-0.6,12c0,1,1.6,1,1.6,0c-0.2-3.9,0-7.7,0.6-11.6C240.3,265.4,238.7,265,238.6,265.9
			L238.6,265.9z"/>
	</g>
</g>
<g>
	<g>
		<path d="M238.4,279.4c3.1,2.1,6.2,4.1,9.5,5.8c0.9,0.5,1.7-0.9,0.8-1.3c-3.3-1.7-6.5-3.7-9.5-5.8
			C238.3,277.5,237.5,278.9,238.4,279.4L238.4,279.4z"/>
	</g>
</g>
<g>
	<g>
		<path d="M249.2,285.2c0.6-1,1.5-1.7,2.5-2.3c1.2-0.7,2.4-1.3,3.6-1.9c2.1-1,4.2-1.8,5.6-3.6c0.6-0.8-0.8-1.6-1.4-0.8
			c-1.4,1.8-4.1,2.6-6.1,3.6c-2,1-4.5,2.2-5.6,4.3C247.4,285.3,248.8,286.1,249.2,285.2L249.2,285.2z"/>
	</g>
</g>
<g>
	<g>
		<path d="M258.1,265.5c1.1,4.1,1.5,8.3,1.2,12.5c-0.1,1,1.5,1,1.6,0c0.3-4.4-0.2-8.7-1.3-12.9C259.4,264.1,257.9,264.5,258.1,265.5
			L258.1,265.5z"/>
	</g>
</g>
<g>
	<g>
		<path d="M246.3,274.6c-0.3,0-0.7,0.1-1-0.1c-0.2-0.1-0.3-0.5-0.3-0.7c0-0.1,0.1-0.2,0.2-0.3c0.1-0.1,0.3-0.1,0.4-0.1
			c0.1,0,0.2,0,0.3,0.1c0,0,0.1,0.1,0.1,0.1c0,0.1,0.1,0.1,0.1,0.2c0.1,0.3,0.1,0.7,0,1c-0.2,0.3,0.3,0.5,0.4,0.2
			c0.2-0.4,0.2-0.8,0.1-1.3c0-0.2-0.1-0.4-0.3-0.6c-0.2-0.2-0.4-0.2-0.6-0.3c-0.2,0-0.4,0-0.6,0.1c-0.2,0.1-0.4,0.2-0.5,0.4
			c-0.1,0.2-0.1,0.5,0,0.7c0,0.2,0.1,0.4,0.3,0.6c0.4,0.4,1,0.4,1.5,0.4c0.1,0,0.2-0.1,0.2-0.2C246.5,274.8,246.4,274.6,246.3,274.6
			L246.3,274.6z"/>
	</g>
</g>
<g>
	<g>
		<path d="M252.6,274.6c-0.2,0-0.3,0.1-0.5,0.1c-0.1,0-0.2,0-0.4-0.1c-0.1-0.1-0.2-0.1-0.2-0.2c0-0.1,0-0.1,0-0.2c0,0,0-0.1,0-0.2
			c0,0,0-0.1,0-0.1c0,0,0,0,0,0c0,0,0,0,0,0c0,0,0,0,0,0c0,0,0,0,0,0c0,0,0,0,0,0c0.1,0,0.1,0,0.2-0.1c0.1,0,0.2-0.1,0.2-0.1
			c0.1,0,0.2,0,0.2,0c0,0,0.1,0,0.1,0c0,0,0,0,0.1,0c0,0,0,0,0,0c0,0,0,0,0,0c0.1,0,0.1,0,0.2,0.1c0,0,0,0,0,0c0,0,0,0,0,0
			c0,0,0,0,0,0c0,0,0,0,0,0c0,0.1,0.1,0.1,0.1,0.2c0,0,0,0.1,0,0.1c0,0,0,0,0,0c0,0,0,0.1,0,0.1c0,0.2,0,0.4-0.1,0.5
			c0,0.1,0,0.3,0.2,0.3c0.1,0,0.3,0,0.3-0.2c0.1-0.4,0.2-0.9,0-1.2c-0.1-0.2-0.2-0.3-0.4-0.4c-0.2-0.1-0.4-0.1-0.7,0
			c-0.2,0-0.4,0.1-0.6,0.2c-0.2,0.1-0.3,0.3-0.4,0.5c0,0.2,0,0.4,0,0.6c0,0.2,0.1,0.4,0.3,0.5c0.4,0.4,0.9,0.3,1.4,0.1
			c0.1,0,0.2-0.2,0.2-0.3C252.9,274.6,252.7,274.5,252.6,274.6L252.6,274.6z"/>
	</g>
</g>
<g>
	<g>
		<path d="M245.9,279.4c-0.2-0.2-0.1-0.5,0-0.8c0.1-0.2,0.3-0.5,0.5-0.6c0.6-0.4,1.3-0.4,2-0.3c0.1,0,0.2-0.1,0.2-0.2
			c0-0.1-0.1-0.2-0.2-0.2c-0.8-0.1-1.7,0-2.4,0.5c-0.6,0.5-0.9,1.3-0.4,2c0.1,0.1,0.3,0.1,0.3,0C246,279.6,246,279.5,245.9,279.4
			L245.9,279.4z"/>
	</g>
</g>
<g>
	<g>
		<path d="M249.9,278c0.3,0,0.6,0.1,0.9,0c0.3,0,0.5-0.1,0.7-0.3c0.1-0.1,0.2-0.2,0.3-0.2c0.1-0.1,0.2-0.2,0.3-0.3
			c0.1-0.1,0.1-0.3,0.1-0.4c0-0.2,0-0.3,0-0.5c0-0.3-0.5-0.3-0.5,0c0,0.1,0,0.3,0,0.4c0,0.1,0,0.2,0,0.3c0,0.1-0.2,0.1-0.2,0.2
			c-0.1,0.1-0.2,0.1-0.3,0.2c-0.2,0.1-0.4,0.2-0.5,0.2c-0.3,0-0.5,0-0.8,0C249.6,277.5,249.6,278,249.9,278L249.9,278z"/>
	</g>
</g>
</svg>
