<?xml version="1.0" encoding="utf-8"?>
<!-- Generator: Adobe Illustrator 24.3.0, SVG Export Plug-In . SVG Version: 6.00 Build 0)  -->
<svg version="1.1" id="레이어_1" xmlns="http://www.w3.org/2000/svg" xmlns:xlink="http://www.w3.org/1999/xlink" x="0px"
	 y="0px" viewBox="0 0 200 200" style="enable-background:new 0 0 200 200;" xml:space="preserve">
<style type="text/css">
	.st0{fill:#E2E2E2;}
</style>
<g>
	<g>
		<path class="st0" d="M103.5,10.4C79.1,25,55.1,40.3,31.6,56.4c-5.3,3.6-0.3,12.3,5,8.6c23.5-16,47.5-31.3,72-45.9
			C114.1,15.8,109.1,7.1,103.5,10.4L103.5,10.4z"/>
	</g>
</g>
<g>
	<g>
		<path class="st0" d="M40.9,71.9c18.7,13.6,40.4,22.7,58.1,37.7c4.9,4.1,12-2.9,7.1-7.1C87.6,87,65.3,77.4,45.9,63.3
			C40.7,59.5,35.7,68.2,40.9,71.9L40.9,71.9z"/>
	</g>
</g>
<g>
	<g>
		<path class="st0" d="M107.4,26c15.1,12.2,31.3,22.7,48.8,31.1c5.8,2.8,10.9-5.9,5.1-8.6c-16.7-8-32.4-17.8-46.8-29.5
			C109.5,14.9,102.4,22,107.4,26L107.4,26z"/>
	</g>
</g>
<g>
	<g>
		<path class="st0" d="M158,53c-18.2,18.7-38.9,34.5-61.7,47.3c-5.6,3.1-0.6,11.8,5.1,8.6c23.5-13.1,45-29.6,63.8-48.8
			C169.6,55.5,162.5,48.4,158,53L158,53z"/>
	</g>
</g>
<g>
	<g>
		<path class="st0" d="M92.6,108.7c2.8,22.3,3.6,44.7,2.5,67.2c-0.3,6.4,9.7,6.4,10,0c1.1-22.4,0.2-44.9-2.5-67.2
			C101.8,102.3,91.8,102.3,92.6,108.7L92.6,108.7z"/>
	</g>
</g>
<g>
	<g>
		<path class="st0" d="M33.6,62.1c-3.8,25.8-5.1,51.7-4,77.7c0.3,6.4,10.3,6.4,10,0c-1.2-25.1,0-50.2,3.6-75.1
			C44.2,58.5,34.5,55.7,33.6,62.1L33.6,62.1z"/>
	</g>
</g>
<g>
	<g>
		<path class="st0" d="M32.1,149.8c19.1,13.9,39,26.5,59.7,37.9c5.6,3.1,10.7-5.5,5.1-8.6c-20.7-11.4-40.6-24-59.7-37.9
			C31.9,137.4,27,146,32.1,149.8L32.1,149.8z"/>
	</g>
</g>
<g>
	<g>
		<path class="st0" d="M100.2,187.1c3.6-6.8,9.6-11.1,15.9-15.1c7.3-4.6,14.8-8.8,22.5-12.6c12.9-6.3,26-11.6,34.8-23.5
			c3.8-5.2-4.8-10.2-8.6-5.1c-8.9,12-25.4,16.7-38,23.4c-12.7,6.8-28.2,14.4-35.2,27.7C88.6,187.7,97.2,192.8,100.2,187.1
			L100.2,187.1z"/>
	</g>
</g>
<g>
	<g>
		<path class="st0" d="M155.8,59.2c6.8,26.6,9.3,54,7.6,81.5c-0.4,6.4,9.6,6.4,10,0c1.7-28.3-1-56.7-8-84.1
			C163.9,50.3,154.2,53,155.8,59.2L155.8,59.2z"/>
	</g>
</g>
<g>
	<g>
		<path class="st0" d="M81.5,118.6c-2.1,0.2-4.4,0.4-6.1-0.7c-1.5-0.9-1.9-3.1-1.9-4.8c0-0.9,0.5-1.3,1.2-1.8
			c0.8-0.5,1.7-0.9,2.5-0.9c0.8-0.1,1.5,0.1,2.2,0.6c0.1,0.1,0.5,0.5,0.6,0.7c0.2,0.4,0.4,0.9,0.5,1.4c0.5,2.1,0.7,4.5-0.3,6.3
			c-0.9,1.7,1.7,3.2,2.6,1.5c1.4-2.5,1.2-5.4,0.7-8.2c-0.3-1.4-0.7-2.7-1.8-3.7c-1-1-2.4-1.5-3.7-1.6c-1.4-0.1-2.8,0.3-4.1,0.9
			c-1.2,0.6-2.4,1.5-3,2.7c-0.7,1.4-0.4,3.1-0.2,4.6c0.2,1.3,0.8,2.6,1.7,3.7c2.2,2.6,5.9,2.6,9.1,2.3c0.8-0.1,1.5-0.6,1.5-1.5
			C83,119.3,82.3,118.5,81.5,118.6L81.5,118.6z"/>
	</g>
</g>
<g>
	<g>
		<path class="st0" d="M121.1,118.2c-1,0.3-2.1,0.7-3.1,0.7c-0.9,0.1-1.6,0-2.2-0.4c-0.6-0.4-1-0.9-1.2-1.6
			c-0.1-0.4-0.2-0.8-0.3-1.3c-0.1-0.3-0.1-0.7-0.1-1.1c0-0.2,0-0.4,0-0.6c0-0.1,0-0.2,0-0.3c0,0.2,0,0,0-0.1c0-0.1,0.1-0.2,0.1-0.3
			c-0.1,0.2,0,0,0-0.1c0-0.1,0.2-0.2,0.2-0.3c0.4-0.3,0.6-0.3,1.1-0.5c0.5-0.2,1-0.3,1.5-0.5c0.4-0.1,0.9-0.2,1.2-0.3
			c0.2,0,0.5,0,0.7,0c0.1,0,0.2,0,0.3,0c0.1,0,0.1,0,0,0c0.1,0,0.1,0,0.2,0c0.4,0.1,0.6,0.2,1,0.4c-0.2-0.1,0,0,0.1,0.1
			c0.1,0.1,0.2,0.2,0.3,0.3c0,0,0.2,0.3,0.1,0.1c-0.1-0.1,0.1,0.2,0.2,0.2c0.3,0.5,0.4,0.7,0.5,1.2c0.1,0.2,0.1,0.5,0.2,0.7
			c0-0.2,0,0.1,0,0.1c0,0.2,0,0.4,0,0.6c0,1.2-0.3,2.4-0.6,3.6c-0.2,0.8,0.2,1.6,1.1,1.8c0.8,0.2,1.7-0.3,1.8-1.1
			c0.7-2.7,1.2-5.5-0.2-8.1c-0.6-1.1-1.5-2-2.6-2.5c-1.4-0.6-2.8-0.6-4.2-0.3c-1.2,0.2-2.5,0.7-3.7,1.3c-1.3,0.6-2,1.9-2.2,3.3
			c-0.1,1.2,0.1,2.5,0.3,3.6c0.3,1.2,0.8,2.4,1.6,3.2c2.4,2.4,5.9,1.7,8.8,0.8c0.8-0.2,1.3-1.1,1.1-1.8
			C122.8,118.5,121.9,118,121.1,118.2L121.1,118.2z"/>
	</g>
</g>
<g>
	<g>
		<path class="st0" d="M79.5,149.5c-1.1-1.4-0.7-3.5-0.1-5c0.7-1.6,1.9-3,3.3-4c3.6-2.5,8.1-2.8,12.3-2.2c0.8,0.1,1.5-0.8,1.5-1.5
			c0-0.9-0.7-1.4-1.5-1.5c-5.2-0.6-10.8,0-14.9,3.5c-3.6,3-5.9,8.7-2.7,12.8c0.5,0.6,1.6,0.5,2.1,0C80.1,151,80,150.1,79.5,149.5
			L79.5,149.5z"/>
	</g>
</g>
<g>
	<g>
		<path class="st0" d="M104.3,140.2c1.9,0,3.7,0.4,5.6,0.2c1.7-0.2,3.2-0.9,4.6-1.9c0.7-0.5,1.4-1,2-1.6c0.6-0.5,1.3-1.1,1.7-1.8
			c0.5-0.8,0.6-1.8,0.6-2.7c0-1,0.1-1.9,0.1-2.9c0.1-1.9-2.9-1.9-3,0c0,0.8,0,1.6-0.1,2.4c0,0.5,0.1,1.2-0.2,1.7
			c-0.3,0.5-0.9,0.9-1.4,1.3c-0.5,0.4-1,0.8-1.6,1.2c-1,0.7-2.2,1.2-3.4,1.3c-1.6,0.1-3.3-0.3-4.9-0.2
			C102.3,137.2,102.3,140.2,104.3,140.2L104.3,140.2z"/>
	</g>
</g>
</svg>
